<svg xmlns="http://www.w3.org/2000/svg" viewBox="0 0 100 100"><defs><style>.cls-1{fill:#ee7046;}.cls-2{fill:#1e4e63;stroke:#ee7046;stroke-miterlimit:10;stroke-width:0.75px;}</style></defs><g id="Layer_2" data-name="Layer 2"><g id="Layer_1-2" data-name="Layer 1"><rect class="cls-1" width="100" height="100"/><path class="cls-2" d="M55.33,34A5.32,5.32,0,0,1,50,39.33V50H39.33a5.33,5.33,0,0,0-10.66,0H23.33A5.33,5.33,0,0,0,18,55.33V28A10,10,0,0,1,28,18H50V28.67A5.32,5.32,0,0,1,55.33,34Z"/><path class="cls-2" d="M82,28V44.67A5.33,5.33,0,0,1,76.67,50H71.33a5.33,5.33,0,0,1-10.66,0H50V39.33a5.33,5.33,0,0,0,0-10.66V18H72A10,10,0,0,1,82,28Z"/><path class="cls-2" d="M44.67,66A5.32,5.32,0,0,0,50,71.33V82H28A10,10,0,0,1,18,72V55.33A5.33,5.33,0,0,1,23.33,50h5.34a5.33,5.33,0,0,1,10.66,0H50V60.67A5.32,5.32,0,0,0,44.67,66Z"/></g></g></svg>